<?xml version="1.0" standalone="no"?>
<!DOCTYPE svg PUBLIC "-//W3C//DTD SVG 20010904//EN"
 "http://www.w3.org/TR/2001/REC-SVG-20010904/DTD/svg10.dtd">
<svg version="1.0" xmlns="http://www.w3.org/2000/svg"
 width="225.000000pt" height="225.000000pt" viewBox="0 0 225.000000 225.000000"
 preserveAspectRatio="xMidYMid meet">
<metadata>
Created by potrace 1.14, written by Peter Selinger 2001-2017
</metadata>
<g transform="translate(0.000000,225.000000) scale(0.100000,-0.100000)"
fill="#000000" stroke="none">
<path d="M366 2053 c-3 -16 -8 -58 -12 -94 l-6 -66 61 -6 c84 -7 142 -42 173
-104 20 -41 23 -62 22 -148 -1 -88 -14 -156 -103 -559 -57 -252 -105 -465
-108 -472 -4 -11 17 -14 114 -14 l119 0 49 230 49 230 38 0 c37 0 39 -2 72
-69 48 -94 162 -261 240 -351 175 -200 415 -365 632 -433 82 -26 237 -52 253
-43 4 3 11 36 15 73 4 37 9 82 12 99 l6 31 -81 6 c-150 12 -335 90 -485 206
-82 64 -213 201 -278 292 -55 77 -124 197 -116 204 2 2 37 16 79 32 207 81
371 255 445 473 14 40 19 84 19 160 0 93 -3 112 -26 161 -33 71 -87 124 -158
158 -50 23 -68 26 -171 26 -110 0 -119 -2 -181 -32 -84 -42 -148 -98 -210
-186 -28 -40 -50 -64 -53 -56 -2 8 -9 32 -15 54 -15 57 -64 127 -110 159 -53
37 -150 66 -221 66 -56 0 -59 -1 -64 -27z m919 -183 c72 -35 98 -114 71 -219
-43 -166 -157 -304 -315 -379 -66 -32 -84 -36 -178 -40 l-105 -5 7 34 c4 19
21 74 37 124 123 368 318 565 483 485z"/>
</g>
</svg>
