<?xml version="1.0" encoding="utf-8"?>
<svg xmlns="http://www.w3.org/2000/svg" style="margin: auto; display: block; shape-rendering: auto; background: none;" width="286" height="250" preserveAspectRatio="xMidYMid">
<style type="text/css">
  text {
    text-anchor: middle; font-size: 69px; opacity: 0;
  }
</style>
<g style="transform-origin:143px 125px;transform:scale(1)">
<g transform="translate(143,125)">
  <g transform="translate(0,0)"><g class="path" style="transform: rotate(0deg); transform-origin: -76px -5.11095px; animation: 4.16667s linear -2.40625s infinite normal forwards running spin-5384d349-dec1-4d63-af61-604657b33e83;"><path d="M2.70 0L19.20 0L19.20-1.75L13.88-1.75L13.88-18.53L20.28-18.53L31.06 0L41.24 0L41.24 0Q41.24-1.48 40.43-1.68L40.43-1.68L40.43-1.68Q40.09-1.75 39.62-1.75L39.62-1.75L37.06-1.75L26.21-19.14L26.21-19.14Q32.61-20.69 34.97-25.81L34.97-25.81L34.97-25.81Q35.85-27.83 35.85-29.92L35.85-29.92L35.85-29.92Q35.85-34.97 31.47-38.00L31.47-38.00L31.47-38.00Q27.90-40.43 22.64-40.43L22.64-40.43L2.70-40.43L2.70-38.68L8.09-38.68L8.09-1.75L2.70-1.75L2.70 0zM13.88-38.68L20.62-38.68L20.62-38.68Q26.41-38.68 28.64-33.96L28.64-33.96L28.64-33.96Q29.51-32.01 29.51-29.85L29.51-29.85L29.51-29.85Q29.51-25.00 26.14-22.30L26.14-22.30L26.14-22.30Q23.85-20.48 20.82-20.48L20.82-20.48L13.88-20.48L13.88-38.68" fill="#252b42" stroke="none" stroke-width="none" transform="translate(-97.97000122070312,15.104050521850587)" style="fill: rgb(37, 43, 66);"></path></g><g class="path" style="transform: rotate(0deg); transform-origin: -40.93px 0.784051px; animation: 4.16667s linear -2.0625s infinite normal forwards running spin-5384d349-dec1-4d63-af61-604657b33e83;"><path d="M58.02-27.63L58.02-27.63L58.02-27.63Q62.73-27.63 64.28-23.65L64.28-23.65L64.28-23.65Q64.82-22.37 64.82-20.89L64.82-20.89L64.82-20.89Q64.82-17.52 61.59-16.78L61.59-16.78L61.59-16.78Q59.90-16.44 56.80-16.51L56.80-16.51L49.66-16.71L49.66-16.71Q50.00-24.46 54.71-26.82L54.71-26.82L54.71-26.82Q56.26-27.63 58.02-27.63zM69.74-6.47L69.74-6.47L68.06-7.08L68.06-7.08Q65.70-1.95 60.44-1.28L60.44-1.28L60.44-1.28Q59.77-1.21 59.16-1.21L59.16-1.21L59.16-1.21Q52.09-1.21 50.27-9.64L50.27-9.64L50.27-9.64Q49.73-11.99 49.66-14.82L49.66-14.82L57.75-14.69L57.75-14.69Q65.97-14.55 68.33-16.24L68.33-16.24L68.33-16.24Q70.15-17.59 70.15-20.08L70.15-20.08L70.15-20.08Q70.15-24.66 65.50-27.36L65.50-27.36L65.50-27.36Q62.19-29.31 57.88-29.31L57.88-29.31L57.88-29.31Q49.46-29.31 45.82-22.30L45.82-22.30L45.82-22.30Q43.93-18.67 43.93-14.08L43.93-14.08L43.93-14.08Q43.93-5.73 49.93-1.68L49.93-1.68L49.93-1.68Q53.50 0.67 58.08 0.67L58.08 0.67L58.08 0.67Q65.36 0.67 68.80-4.58L68.80-4.58L68.80-4.58Q69.34-5.53 69.74-6.47" fill="#252b42" stroke="none" stroke-width="none" transform="translate(-97.97000122070312,15.104050521850587)" style="fill: rgb(37, 43, 66);"></path></g><g class="path" style="transform: rotate(0deg); transform-origin: -15.525px -6.79595px; animation: 4.16667s linear -1.71875s infinite normal forwards running spin-5384d349-dec1-4d63-af61-604657b33e83;"><path d="M88.47-1.68L88.47-1.68L84.83-1.68L84.83-43.80L74.73-43.80L74.73-42.11L79.78-42.11L79.78-5.73L79.78-5.73Q79.78-2.63 78.03-2.02L78.03-2.02L78.03-2.02Q77.02-1.68 74.73-1.68L74.73-1.68L74.73 0L90.16 0L90.16 0Q90.16-1.48 89.15-1.62L89.15-1.62L89.15-1.62Q88.88-1.68 88.47-1.68" fill="#252b42" stroke="none" stroke-width="none" transform="translate(-97.97000122070312,15.104050521850587)" style="fill: rgb(37, 43, 66);"></path></g><g class="path" style="transform: rotate(0deg); transform-origin: 9.64px 0.954051px; animation: 4.16667s linear -1.375s infinite normal forwards running spin-5384d349-dec1-4d63-af61-604657b33e83;"><path d="M100.54-26.95L105.25-26.95L105.25-28.64L92.18-28.64L92.18-26.95L95.21-26.95L103.43-4.38L103.43-4.38Q104.78-0.61 106.40 0L106.40 0L106.40 0Q107.21 0.34 108.42 0.34L108.42 0.34L109.29 0.34L118.80-24.59L118.80-24.59Q119.60-26.68 120.75-26.89L120.75-26.89L120.75-26.89Q121.09-26.95 121.36-26.95L121.36-26.95L121.36-26.95Q122.84-26.95 122.97-27.96L122.97-27.96L122.97-27.96Q123.04-28.30 123.04-28.64L123.04-28.64L112.66-28.64L112.66-26.95L117.72-26.95L109.16-3.98L100.54-26.95" fill="#252b42" stroke="none" stroke-width="none" transform="translate(-97.97000122070312,15.104050521850587)" style="fill: rgb(37, 43, 66);"></path></g><g class="path" style="transform: rotate(0deg); transform-origin: 35.04px 0.784051px; animation: 4.16667s linear -1.03125s infinite normal forwards running spin-5384d349-dec1-4d63-af61-604657b33e83;"><path d="M139.08-1.68L139.08-1.68L135.71-1.68L135.71-28.64L125.26-28.64L125.26-26.95L130.66-26.95L130.66-5.73L130.66-5.73Q130.66-2.63 128.57-1.95L128.57-1.95L128.57-1.95Q127.56-1.68 125.26-1.68L125.26-1.68L125.26 0L140.76 0L140.76 0Q140.76-1.48 139.75-1.62L139.75-1.62L139.75-1.62Q139.42-1.68 139.08-1.68" fill="#252b42" stroke="none" stroke-width="none" transform="translate(-97.97000122070312,15.104050521850587)" style="fill: rgb(37, 43, 66);"></path></g><g class="path" style="transform: rotate(0deg); transform-origin: 34.875px -23.371px; animation: 4.16667s linear -0.6875s infinite normal forwards running spin-5384d349-dec1-4d63-af61-604657b33e83;"><path d="M136.52-38.48L136.52-38.48L136.52-38.48Q136.52-40.83 134.43-41.84L134.43-41.84L134.43-41.84Q133.62-42.18 132.88-42.18L132.88-42.18L132.88-42.18Q130.52-42.18 129.51-40.03L129.51-40.03L129.51-40.03Q129.17-39.28 129.17-38.48L129.17-38.48L129.17-38.48Q129.17-35.98 131.40-35.04L131.40-35.04L131.40-35.04Q132.14-34.77 132.88-34.77L132.88-34.77L132.88-34.77Q135.24-34.77 136.18-36.93L136.18-36.93L136.18-36.93Q136.52-37.67 136.52-38.48" fill="#252b42" stroke="none" stroke-width="none" transform="translate(-97.97000122070312,15.104050521850587)" style="fill: rgb(37, 43, 66);"></path></g><g class="path" style="transform: rotate(0deg); transform-origin: 58.625px 0.579051px; animation: 4.16667s linear -0.34375s infinite normal forwards running spin-5384d349-dec1-4d63-af61-604657b33e83;"><path d="M155.59-1.15L155.59-1.15L155.59-1.15Q160.24-1.15 161.85-3.98L161.85-3.98L161.85-3.98Q162.46-4.99 162.46-6.20L162.46-6.20L162.46-6.20Q162.46-9.03 158.35-11.05L158.35-11.05L158.35-11.05Q157.47-11.52 155.45-12.40L155.45-12.40L155.45-12.40Q149.93-14.69 148.11-16.71L148.11-16.71L148.11-16.71Q146.15-18.93 146.15-21.90L146.15-21.90L146.15-21.90Q146.15-26.55 151.27-28.44L151.27-28.44L151.27-28.44Q153.63-29.31 156.40-29.31L156.40-29.31L156.40-29.31Q160.84-29.31 164.08-27.42L164.08-27.42L164.08-27.42Q164.08-29.38 165.02-29.65L165.02-29.65L165.02-29.65Q165.42-29.72 165.90-29.72L165.90-29.72L165.90-21.29L164.14-21.29L164.14-21.29Q164.01-27.49 157.27-27.56L157.27-27.56L157.27-27.56Q152.22-27.56 151.00-24.59L151.00-24.59L151.00-24.59Q150.67-23.79 150.67-22.91L150.67-22.91L150.67-22.91Q150.67-20.01 154.85-17.99L154.85-17.99L154.85-17.99Q155.79-17.52 157.81-16.71L157.81-16.71L157.81-16.71Q163.27-14.49 165.09-12.47L165.09-12.47L165.09-12.47Q167.04-10.31 167.04-7.34L167.04-7.34L167.04-7.34Q167.04-1.89 161.25-0.07L161.25-0.07L161.25-0.07Q159.02 0.67 156.40 0.67L156.40 0.67L156.40 0.67Q151.54 0.61 147.97-1.75L147.97-1.75L147.97-1.75Q147.97 0 147.10 0.27L147.10 0.27L147.10 0.27Q146.69 0.34 146.15 0.34L146.15 0.34L146.15-9.91L148.04-9.91L148.04-9.91Q148.17-1.21 155.59-1.15" fill="#252b42" stroke="none" stroke-width="none" transform="translate(-97.97000122070312,15.104050521850587)" style="fill: rgb(37, 43, 66);"></path></g><g class="path" style="transform: rotate(0deg); transform-origin: 87.565px 0.784051px; animation: 4.16667s linear 0s infinite normal forwards running spin-5384d349-dec1-4d63-af61-604657b33e83;"><path d="M186.52-27.63L186.52-27.63L186.52-27.63Q191.23-27.63 192.78-23.65L192.78-23.65L192.78-23.65Q193.32-22.37 193.32-20.89L193.32-20.89L193.32-20.89Q193.32-17.52 190.09-16.78L190.09-16.78L190.09-16.78Q188.40-16.44 185.30-16.51L185.30-16.51L178.16-16.71L178.16-16.71Q178.50-24.46 183.21-26.82L183.21-26.82L183.21-26.82Q184.76-27.63 186.52-27.63zM198.24-6.47L198.24-6.47L196.56-7.08L196.56-7.08Q194.20-1.95 188.94-1.28L188.94-1.28L188.94-1.28Q188.27-1.21 187.66-1.21L187.66-1.21L187.66-1.21Q180.59-1.21 178.77-9.64L178.77-9.64L178.77-9.64Q178.23-11.99 178.16-14.82L178.16-14.82L186.25-14.69L186.25-14.69Q194.47-14.55 196.83-16.24L196.83-16.24L196.83-16.24Q198.64-17.59 198.64-20.08L198.64-20.08L198.64-20.08Q198.64-24.66 194.00-27.36L194.00-27.36L194.00-27.36Q190.69-29.31 186.38-29.31L186.38-29.31L186.38-29.31Q177.96-29.31 174.32-22.30L174.32-22.30L174.32-22.30Q172.43-18.67 172.43-14.08L172.43-14.08L172.43-14.08Q172.43-5.73 178.43-1.68L178.43-1.68L178.43-1.68Q182.00 0.67 186.58 0.67L186.58 0.67L186.58 0.67Q193.86 0.67 197.30-4.58L197.30-4.58L197.30-4.58Q197.84-5.53 198.24-6.47" fill="#252b42" stroke="none" stroke-width="none" transform="translate(-97.97000122070312,15.104050521850587)" style="fill: rgb(37, 43, 66);"></path></g></g>
</g>
</g>
<style id="spin-5384d349-dec1-4d63-af61-604657b33e83" data-anikit="">@keyframes spin-5384d349-dec1-4d63-af61-604657b33e83
{
  0% {
    animation-timing-function: cubic-bezier(0.5856,0.0703,0.4143,0.9297);
    transform: rotate(0deg);
  }
  100% {
    transform: rotate(360deg);
  }
}</style></svg>